<svg xmlns="http://www.w3.org/2000/svg" viewBox="0 0 64 64" fill="none">
  <rect width="64" height="64" rx="18" fill="#0F766E" />
  <path d="M22 18h20a4 4 0 0 1 4 4v20a4 4 0 0 1-4 4H22a4 4 0 0 1-4-4V22a4 4 0 0 1 4-4Z" fill="#14B8A6" />
  <path d="M32 23c4.418 0 8 3.582 8 8 0 6.2-8 14-8 14s-8-7.8-8-14c0-4.418 3.582-8 8-8Z" fill="#F8FAFC" />
  <path d="M32 27.5v7" stroke="#0F766E" stroke-linecap="round" stroke-width="2.8" />
  <path d="M28.5 31h7" stroke="#0F766E" stroke-linecap="round" stroke-width="2.8" />
</svg>
